<svg xmlns="http://www.w3.org/2000/svg" viewBox="0 0 55 52"><defs><style>.cls-1{fill:#dcfbff;}.cls-2{fill:#84dde7;}</style></defs><title>图层 1</title><g id="图层_2" data-name="图层 2"><g id="图层_1-2" data-name="图层 1"><g id="Page-1"><g id="首页1-copy"><g id="Group-26"><g id="Group-37"><g id="年龄"><g id="Group"><circle id="Oval-6" class="cls-1" cx="22.5" cy="14.5" r="9.5"/><path class="cls-2" d="M21,26A13,13,0,1,1,34,13,13,13,0,0,1,21,26ZM21,3A10,10,0,1,0,31,13,10,10,0,0,0,21,3Z"/><path id="Rectangle-14" class="cls-1" d="M16,28H33A10,10,0,0,1,43,38h0A10,10,0,0,1,33,48H16A10,10,0,0,1,6,38H6A10,10,0,0,1,16,28Z"/><path class="cls-2" d="M32,52H12a12,12,0,0,1,0-24H32a12,12,0,0,1,0,24ZM12,31a9,9,0,0,0,0,18H32a9,9,0,0,0,0-18Z"/></g><path id="Rectangle" class="cls-2" d="M37.5,5h16A1.5,1.5,0,0,1,55,6.5h0A1.5,1.5,0,0,1,53.5,8h-16A1.5,1.5,0,0,1,36,6.5h0A1.5,1.5,0,0,1,37.5,5Z"/><path id="Rectangle-Copy" class="cls-2" d="M37.5,12h16A1.5,1.5,0,0,1,55,13.5h0A1.5,1.5,0,0,1,53.5,15h-16A1.5,1.5,0,0,1,36,13.5h0A1.5,1.5,0,0,1,37.5,12Z"/><path id="Rectangle-Copy-2" class="cls-2" d="M37.5,19h16A1.5,1.5,0,0,1,55,20.5h0A1.5,1.5,0,0,1,53.5,22h-16A1.5,1.5,0,0,1,36,20.5h0A1.5,1.5,0,0,1,37.5,19Z"/></g></g></g></g></g></g></g></svg>