<svg xmlns="http://www.w3.org/2000/svg" viewBox="0 0 52 54"><defs><style>.cls-1{fill:#cee9ff;}.cls-2{fill:#8fd0ff;}.cls-3{fill:#fff;}</style></defs><title>离职人员</title><g id="图层_2" data-name="图层 2"><g id="图层_1-2" data-name="图层 1"><g id="Page-1"><g id="首页1-copy"><g id="Group-26"><g id="Group-25"><g id="离职人员"><g id="Group"><circle id="Oval-6" class="cls-1" cx="26.5" cy="14.5" r="9.5"/><path class="cls-2" d="M25,26A13,13,0,1,1,38,13,13,13,0,0,1,25,26ZM25,3A10,10,0,1,0,35,13,10,10,0,0,0,25,3Z"/><path id="Rectangle-14" class="cls-1" d="M16,32H40A10,10,0,0,1,50,42h0A10,10,0,0,1,40,52H16A10,10,0,0,1,6,42H6A10,10,0,0,1,16,32Z"/><path class="cls-2" d="M38,52H12a12,12,0,0,1,0-24H38a12,12,0,0,1,0,24ZM12,31a9,9,0,0,0,0,18H38a9,9,0,0,0,0-18Z"/><g id="Oval-8"><circle id="path-1" class="cls-3" cx="39" cy="41" r="13"/><path class="cls-2" d="M39,54A13,13,0,1,1,52,41,13,13,0,0,1,39,54Zm0-23A10,10,0,1,0,49,41,10,10,0,0,0,39,31Z"/></g><path id="离" class="cls-2" d="M42.94,40V37h1.48v4.29H39.65q-.13.36-.24.72h6V46.5A1.34,1.34,0,0,1,43.84,48H42.68l-.37-1.45,1,.06c.33,0,.51-.15.51-.44V43.46H42c.45.76.9,1.57,1.34,2.44l-1.25.62c-.09-.21-.19-.42-.28-.62-1.19.21-3,.44-5.41.71L36,45.21a.82.82,0,0,0,.57-.22,12,12,0,0,0,.79-1.53H35.16V48h-1.5v-6h4.25l.22-.72H34.59V37h1.49v3H37l-.6-1a14.52,14.52,0,0,0,2-.68c-.61-.27-1.21-.51-1.81-.72l.64-1c.87.3,1.71.63,2.51,1a14.24,14.24,0,0,0,1.47-1.08l1.08.66a13.84,13.84,0,0,1-1.27,1q.78.39,1.5.81l-.62,1Zm-2.51,3.42H38.87a16.69,16.69,0,0,1-.78,1.63c1-.12,2.07-.25,3.06-.4C40.91,44.25,40.67,43.85,40.43,43.46ZM39.82,39a20.87,20.87,0,0,1-2.45,1h4.31C41.05,39.65,40.43,39.31,39.82,39ZM40,34c.15.34.3.72.45,1.12H46v1.44H33V35.12h5.81c-.15-.3-.3-.58-.45-.85Z"/></g></g></g></g></g></g></g></g></svg>