<svg xmlns="http://www.w3.org/2000/svg" viewBox="0 0 50 52"><defs><style>.cls-1{fill:#e6e8e9;}.cls-2{fill:#8093a1;}</style></defs><title>干部</title><g id="图层_2" data-name="图层 2"><g id="图层_1-2" data-name="图层 1"><g id="Page-1"><g id="首页1-copy"><g id="Group-26"><g id="Group-38"><g id="干部"><g id="Group"><circle id="Oval-6" class="cls-1" cx="26.5" cy="14.5" r="9.5"/><path class="cls-2" d="M25,26A13,13,0,1,1,38,13,13,13,0,0,1,25,26ZM25,3A10,10,0,1,0,35,13,10,10,0,0,0,25,3Z"/><path id="Rectangle-14" class="cls-1" d="M15,32H39A10,10,0,0,1,49,42h0A10,10,0,0,1,39,52H15A10,10,0,0,1,5,42H5A10,10,0,0,1,15,32Z"/><path class="cls-2" d="M38,52H12a12,12,0,0,1,0-24H38a12,12,0,0,1,0,24ZM26.57,49H38a9,9,0,0,0,0-18H28.94l2.79,10.12ZM12,31a9,9,0,0,0,0,18H23.42l-5.14-7.89L21.06,31Zm9.53,9.61L25,45.93l3.48-5.32L25.83,31H24.17Z"/></g></g></g></g></g></g></g></g></svg>