<?xml version="1.0" encoding="UTF-8"?>
<svg width="240px" height="40px" viewBox="0 0 240 40" version="1.1" xmlns="http://www.w3.org/2000/svg" xmlns:xlink="http://www.w3.org/1999/xlink">
    <!-- Generator: Sketch 49.1 (51147) - http://www.bohemiancoding.com/sketch -->
    <title>logo</title>
    <desc>Created with Sketch.</desc>
    <defs></defs>
    <g id="Page-1" stroke="none" stroke-width="1" fill="none" fill-rule="evenodd">
        <g id="人事登录页2" transform="translate(-260.000000, -358.000000)" fill="#263946">
            <g id="Group-4" transform="translate(140.000000, 280.000000)">
                <g id="logo-人事系统" transform="translate(120.000000, 78.000000)">
                    <g id="Group" stroke-width="1">
                        <g id="Group-15">
                            <path d="M22.6666667,25.3333333 L22.6666667,34.4248317 C29.4936481,33.1708148 34.6666667,27.189519 34.6666667,20 C34.6666667,13.8343134 30.862082,8.55723525 25.4724936,6.38834618 L27.8639905,1.60535229 C35.0001718,4.66014564 40,11.7461866 40,20 C40,31.045695 31.045695,40 20,40 C19.0958432,40 18.2056997,39.9400025 17.3333333,39.8237716 L17.3333333,34.4248317 L17.3333333,25.3333333 L14.6666667,25.3333333 L14.6666667,14.6666667 L17.3333333,14.6666667 L17.3333333,5.5751683 C10.5063519,6.8291852 5.33333333,12.810481 5.33333333,20 C5.33333333,26.2186199 9.20352419,31.5333082 14.6666667,33.6668258 L14.6666667,39.281023 C6.21016798,36.947036 0,29.1987492 0,20 C0,8.954305 8.954305,0 20,0 C20.9041568,0 21.7943003,0.0599975139 22.6666667,0.176228446 L22.6666667,5.5751683 L22.6666667,14.6666667 L25.3333333,14.6666667 L25.3333333,25.3333333 L22.6666667,25.3333333 Z M20,24.6666667 C22.5773288,24.6666667 24.6666667,22.5773288 24.6666667,20 C24.6666667,17.4226712 22.5773288,15.3333333 20,15.3333333 C17.4226712,15.3333333 15.3333333,17.4226712 15.3333333,20 C15.3333333,22.5773288 17.4226712,24.6666667 20,24.6666667 Z" id="Combined-Shape"></path>
                        </g>
                    </g>
                    <path d="M61.3841146,12.1666992 L61.3841146,10.8450846 L64.2734375,10.8450846 L64.2734375,12.1666992 L71.1184896,12.1666992 L71.109375,23.8607096 L69.1041667,26.3125326 L64.2734375,26.303418 L64.2734375,26.959668 L61.3841146,28.1992513 L61.3841146,26.303418 L54.6666667,26.303418 L54.6666667,12.1666992 L61.3841146,12.1666992 Z M61.3841146,14.4088867 L57.5651042,14.4088867 L57.5651042,24.0338867 L61.3841146,24.0338867 L61.3841146,14.4088867 Z M64.2734375,24.0338867 L68.2200521,24.0430013 L68.2018229,14.4088867 L64.2734375,14.4088867 L64.2734375,24.0338867 Z M86.5403646,14.3177409 L81.9921875,14.3177409 L81.9921875,12.0664388 L86.5403646,12.0664388 L86.5403646,10.9726888 L89.1106771,10.9726888 L89.1106771,12.0664388 L90.5507812,12.0664388 L89.8125,14.3177409 L89.1106771,14.3177409 L89.1015625,25.5469076 L86.1119792,27.8893555 L84.7265625,27.8802409 L84.7265625,25.7656576 L86.5403646,25.7656576 L86.5403646,14.3177409 Z M83.6966146,15.7396159 L86.3033854,15.7396159 L84.5169271,25.6562826 L81.7825521,25.6562826 L83.6966146,15.7396159 Z M79.0846354,23.4870117 L81.4179688,27.7526367 L78.7382812,27.7526367 L77.3346354,25.100293 L75.9036458,27.8437826 L73.1692708,27.8437826 L76.1679688,22.4479492 L76.1679688,14.5456055 L78.5195312,14.5456055 L78.5195312,22.4479492 L78.9661458,23.2682617 L78.9661458,13.0508138 L75.7122396,13.0508138 L75.7122396,22.9036784 L73.296875,23.8151367 L73.296875,11.1094076 L81.3815104,11.1094076 L81.3815104,22.6120117 L79.0846354,23.4870117 Z M99.1367188,10.881543 L102.609375,10.881543 L100.3125,16.1680013 L102.891927,16.1680013 L108.52474,27.8437826 L104.860677,27.8528971 L99.8841146,17.3802409 L95.5273438,27.9531576 L92.0182292,27.944043 L99.1367188,10.881543 Z M112.22526,27.8528971 L113.97526,14.7552409 L110.520833,14.7552409 L110.520833,12.5039388 L114.230469,12.5130534 L114.385417,11.1276367 L117.584635,11.1276367 L117.429687,12.5039388 L127.091146,12.5039388 L127.091146,25.5833659 L124.539062,27.8528971 L120.720052,27.8528971 L120.720052,25.5833659 L124.046875,25.5833659 L124.046875,14.7552409 L117.119792,14.7552409 L115.433594,27.8528971 L112.22526,27.8528971 Z M129.588542,19.8594076 L145.648438,19.8594076 L145.648438,24.4531576 L142.759115,25.4831055 L142.759115,21.9193034 L132.486979,21.9193034 L132.486979,24.7995117 L129.588542,25.8841471 L129.588542,19.8594076 Z M136.30599,22.475293 L139.231771,22.475293 L139.231771,23.897168 L146.076823,27.8528971 L141.601562,27.8620117 L137.791667,25.7930013 L133.790365,27.9258138 L129.460937,27.9166992 L136.315104,23.897168 L136.30599,22.475293 Z M141.355469,15.3112305 L143.096354,15.3112305 L146.022135,19.1211263 L142.950521,19.1211263 L140.690104,15.9492513 L137.5,19.1211263 L134.145833,19.1211263 L138.976562,14.2903971 L142.294271,14.2903971 L141.355469,15.3112305 Z M131.557292,15.6120117 L134.601562,15.6120117 L132.022135,19.1211263 L128.795573,19.1211263 L131.557292,15.6120117 Z M138.356771,13.5521159 L137.955729,14.600293 L135.166667,14.600293 L136.397135,11.100293 L139.076823,11.100293 L138.848958,11.7383138 L146.085937,11.7383138 L146.085937,14.4818034 L143.360677,15.365918 L143.360677,13.5521159 L138.356771,13.5521159 Z M129.470052,11.2825846 L132.477865,11.2825846 L134.601562,14.5911784 L131.520833,14.600293 L129.470052,11.2825846 Z M160.915365,12.9961263 L160.56901,13.8984701 L164.223958,13.8984701 L164.214844,19.7956055 L161.808594,21.928418 L160.970052,21.9101888 L160.951823,25.9114909 L158.955729,27.9075846 L157.761719,27.9075846 L157.761719,25.9479492 L158.536458,25.9479492 L158.536458,21.9101888 L155.619792,21.9101888 L155.619792,13.8984701 L157.761719,13.8984701 L158.098958,12.9961263 L154.690104,12.9961263 L154.690104,27.1601888 L152.25651,28.3086263 L152.25651,11.1185221 L164.561198,11.1185221 L163.704427,12.9961263 L160.915365,12.9961263 Z M158.053385,15.7851888 L158.053385,16.9153971 L161.717448,16.9153971 L160.860677,18.756543 L158.053385,18.756543 L158.053385,20.0416992 L161.808594,20.0416992 L161.808594,15.7851888 L158.053385,15.7851888 Z M149.795573,16.0403971 C150.062935,16.0464736 150.330294,16.1209086 150.597656,16.2637044 C150.865019,16.4065003 151.073133,16.6115764 151.222005,16.8789388 C151.370877,17.1463013 151.446832,17.4288505 151.44987,17.7265951 C151.452908,18.0243396 151.381511,18.3008125 151.235677,18.5560221 C151.083767,18.8173082 150.878691,19.0239033 150.620443,19.1758138 C150.362195,19.3277243 150.087241,19.4036784 149.795573,19.4036784 C149.497828,19.4097548 149.221355,19.3368389 148.966146,19.1849284 C148.710936,19.0330179 148.510417,18.8249037 148.364583,18.5605794 C148.218749,18.2962552 148.145833,18.015225 148.145833,17.7174805 C148.145833,17.4318888 148.220268,17.1538968 148.369141,16.8834961 C148.518013,16.6130954 148.724608,16.4049812 148.988932,16.2591471 C149.253257,16.1133131 149.522134,16.0403971 149.795573,16.0403971 Z M149.795573,11.0820638 C150.056859,11.0820638 150.31966,11.1534607 150.583984,11.2962565 C150.848309,11.4390524 151.056423,11.6441284 151.208333,11.9114909 C151.360244,12.1788533 151.437717,12.4598835 151.440755,12.7545899 C151.443793,13.0492962 151.369358,13.32425 151.217448,13.5794596 C151.065537,13.8346693 150.86198,14.0382262 150.606771,14.1901367 C150.351561,14.3420472 150.081165,14.4149632 149.795573,14.4088867 C149.503905,14.4088867 149.228951,14.3344517 148.970703,14.1855794 C148.712455,14.0367072 148.510417,13.8361883 148.364583,13.5840169 C148.218749,13.3318455 148.148871,13.0508154 148.154948,12.740918 C148.154948,12.4492499 148.229383,12.1712578 148.378255,11.9069336 C148.527127,11.6426094 148.733723,11.4405715 148.998047,11.3008138 C149.262371,11.1610562 149.52821,11.0881402 149.795573,11.0820638 Z M148.501302,21.2083659 L151.126302,21.2083659 L151.126302,26.9870117 L148.501302,28.1263346 L148.501302,21.2083659 Z M163.522135,22.5026367 L164.388021,27.8528971 L162.109375,27.8528971 L161.24349,22.5026367 L163.522135,22.5026367 Z M158.290365,22.5026367 L157.1875,27.8528971 L154.908854,27.8528971 L156.011719,22.5026367 L158.290365,22.5026367 Z M169.729167,17.7448242 L169.729167,18.209668 L166.684896,18.9206055 L166.684896,16.0403971 L173.338542,16.0403971 C173.411459,15.8581046 173.463107,15.7487307 173.49349,15.7122721 L173.703125,15.4297201 L172.035156,15.4297201 L170.859375,12.6588867 L170.276042,12.6588867 L169.446615,15.5299805 L166.648438,15.5299805 L167.979167,11.0638346 L175.188802,11.0638346 L174.322917,12.6588867 L173.511719,12.6588867 L174.559896,14.9101888 C174.809029,14.8737303 175.052082,14.8737303 175.289062,14.9101888 L176.373698,11.0273763 L183.382812,11.0273763 L182.535156,12.6588867 L181.878906,12.6588867 L183.227865,15.4661784 L180.484375,15.4661784 L179.171875,12.6588867 L178.679687,12.6588867 L177.941406,15.4661784 L176.236979,15.4661784 C176.364584,15.648471 176.489149,15.8398753 176.610677,16.0403971 L183.127604,16.0403971 L183.127604,17.8541992 L180.083333,18.7383138 L180.083333,17.7448242 L169.729167,17.7448242 Z M167.459635,18.9388346 L182.617188,18.9388346 L182.635417,21.3086263 L180.046875,23.1771159 L170.503906,23.1862305 L170.503906,23.8151367 L182.617188,23.8151367 L182.635417,25.9479492 L180.074219,27.7890951 L167.459635,27.7799805 L167.459635,18.9388346 Z M179.582031,20.5612305 L170.503906,20.5612305 L170.503906,21.490918 L179.582031,21.490918 L179.582031,20.5612305 Z M170.503906,25.2825846 L170.503906,26.1302409 L179.582031,26.1302409 L179.582031,25.2825846 L170.503906,25.2825846 Z M191.166667,11.1185221 L190.364583,13.1601888 L189.425781,13.1601888 L189.425781,18.3463867 L190.865885,18.3463867 L190.009115,20.4245117 L189.425781,20.4245117 L189.425781,25.7383138 L190.947917,25.7383138 L190.063802,27.8164388 L185.233073,27.8164388 L185.233073,25.7383138 L186.682292,25.7383138 L186.682292,20.4245117 L185.233073,20.4245117 L185.233073,18.3463867 L186.682292,18.3463867 L186.682292,13.2057617 L185.260417,13.2057617 L185.260417,11.1185221 L191.166667,11.1185221 Z M191.011719,25.9479492 L195.140625,25.9479492 L195.140625,24.2708659 L191.403646,24.2708659 L191.403646,22.3932617 L195.140625,22.3932617 L195.140625,20.6614909 L191.467448,20.6614909 L191.467448,11.2005534 L201.621094,11.2005534 L201.621094,18.5195638 L199.023437,20.6614909 L197.947917,20.6614909 L197.947917,22.3932617 L201.575521,22.3932617 L200.71875,24.2708659 L197.947917,24.2708659 L197.947917,25.9479492 L202.140625,25.9479492 L201.210937,27.8528971 L191.011719,27.8528971 L191.011719,25.9479492 Z M195.240885,16.8698242 L194.220052,16.8698242 L194.220052,18.8203451 L195.240885,18.8203451 L195.240885,16.8698242 Z M195.240885,13.1055013 L194.220052,13.1055013 L194.220052,15.0195638 L195.240885,15.0195638 L195.240885,13.1055013 Z M197.847656,18.8203451 L198.895833,18.8203451 L198.895833,16.8698242 L197.847656,16.8698242 L197.847656,18.8203451 Z M198.895833,13.1055013 L197.847656,13.1055013 L197.847656,15.0195638 L198.895833,15.0195638 L198.895833,13.1055013 Z M213.123698,13.506543 L209.651042,15.6393555 L212.959635,15.6393555 L214.591146,14.8463867 L219.503906,14.8463867 L210.763021,19.4492513 L217.00651,19.4492513 L216.423177,17.4805013 L219.485677,17.4805013 L220.552083,21.5273763 L217.535156,21.5273763 L217.143229,19.9140951 L216.514323,21.5273763 L213.752604,21.5273763 L213.752604,25.7018555 L211.082031,27.8528971 L209.186198,27.8528971 L209.186198,25.7291992 L210.753906,25.7291992 L210.763021,21.5273763 L204.018229,21.5273763 L204.018229,19.9778971 L209.259115,17.5989909 L204.018229,17.5989909 L204.018229,16.3320638 L208.402344,13.7344076 L204.018229,13.9896159 L204.018229,11.6289388 L220.588542,10.8541992 L219.996094,13.1237305 L213.123698,13.506543 Z M217.88151,22.6575846 L220.488281,27.6979492 L217.24349,27.6979492 L214.700521,22.6575846 L217.88151,22.6575846 Z M206.369792,22.6575846 L209.559896,22.6575846 L207.190104,27.7890951 L203.88151,27.7799805 L206.369792,22.6575846 Z M236.147135,17.3164388 L235.299479,14.8737305 L238.015625,14.8737305 L239.546875,19.303418 L236.839844,19.303418 L236.384115,18.0000326 L235.727865,19.2943034 L229.074219,19.2943034 L229.074219,17.8177409 L230.778646,13.9075846 L229.074219,13.9075846 L229.074219,11.9023763 L232.501302,11.8932617 C232.568143,11.7413512 232.644097,11.5924812 232.729167,11.4466471 C232.814237,11.3008131 232.979816,11.1367522 233.225911,10.9544596 C233.472006,10.7721671 233.775823,10.6764649 234.13737,10.6673503 C234.498917,10.6582356 234.805771,10.7402661 235.057943,10.913444 C235.310114,11.086622 235.475694,11.2582782 235.554687,11.428418 L235.791667,11.8932617 L239.665365,11.9023763 L238.772135,13.9075846 L233.704427,13.9075846 L232.21875,17.3164388 L236.147135,17.3164388 Z M225.738281,16.131543 L226.64974,14.6185221 L229.539062,14.6185221 L225.610677,21.490918 L229.028646,21.4726888 L228.117187,23.5508138 L222.393229,23.569043 L222.393229,21.7005534 L224.535156,18.1276367 L222.329427,18.1276367 L222.320312,15.6758138 L224.826823,11.1185221 L227.752604,11.1185221 L225.018229,16.131543 L225.738281,16.131543 Z M237.195312,19.9414388 L237.213542,25.6380534 L239.665365,25.6289388 L238.744792,27.6068034 L234.470052,27.6068034 L234.479167,19.9414388 L237.195312,19.9414388 Z M228.992187,25.6653971 L228.053385,27.6888346 L222.393229,27.6979492 L222.393229,25.6653971 L228.992187,25.6653971 Z M233.731771,19.9505534 L231.826823,27.6706055 L228.992187,27.6706055 L230.90625,19.9505534 L233.731771,19.9505534 Z" id="中财人力资源管理系统"></path>
                </g>
            </g>
        </g>
    </g>
</svg>