<svg xmlns="http://www.w3.org/2000/svg" viewBox="0 0 52 54"><defs><style>.cls-1{fill:#ffe4ce;}.cls-2{fill:#ff8f31;}.cls-3{fill:#fff;}</style></defs><title>在职人员</title><g id="图层_2" data-name="图层 2"><g id="图层_1-2" data-name="图层 1"><g id="Page-1"><g id="首页1-copy"><g id="Group-26"><g id="Group-36"><g id="在职人员"><g id="Group"><circle id="Oval-6" class="cls-1" cx="26.5" cy="14.5" r="9.5"/><path class="cls-2" d="M25,26A13,13,0,1,1,38,13,13,13,0,0,1,25,26ZM25,3A10,10,0,1,0,35,13,10,10,0,0,0,25,3Z"/><path id="Rectangle-14" class="cls-1" d="M16,32H40A10,10,0,0,1,50,42h0A10,10,0,0,1,40,52H16A10,10,0,0,1,6,42H6A10,10,0,0,1,16,32Z"/><path class="cls-2" d="M38,52H12a12,12,0,0,1,0-24H38a12,12,0,0,1,0,24ZM12,31a9,9,0,0,0,0,18H38a9,9,0,0,0,0-18Z"/><g id="Oval-8"><circle id="path-1" class="cls-3" cx="39" cy="41" r="13"/><path class="cls-2" d="M39,54A13,13,0,1,1,52,41,13,13,0,0,1,39,54Zm0-23A10,10,0,1,0,49,41,10,10,0,0,0,39,31Z"/></g></g><path id="Shape" class="cls-2" d="M35.46,36.16a5.87,5.87,0,0,1,.69-.72L34.9,34.2a.49.49,0,1,0-.7.7Zm4-2h0l.49,0V32.5a.5.5,0,0,0-1,0v1.69c.16,0,.32,0,.49,0h0Zm4,2L44.8,34.9a.49.49,0,1,0-.7-.7l-1.25,1.24A5.87,5.87,0,0,1,43.54,36.16Zm-9.31,3.55a5.52,5.52,0,0,1,.05-.71H32.5a.5.5,0,0,0,0,1h1.74A2.81,2.81,0,0,1,34.23,39.71ZM46.5,39H44.72a5.52,5.52,0,0,1,.05.71,2.81,2.81,0,0,1,0,.29H46.5a.5.5,0,0,0,0-1Zm-2.69,4.1a9.09,9.09,0,0,1-.63.79l.92.91a.49.49,0,1,0,.7-.7Zm-9.61,1a.49.49,0,1,0,.7.7l.92-.91a9.09,9.09,0,0,1-.63-.79Zm9.88-4.39a4.58,4.58,0,0,0-2.94-4.28v0l-.34-.1a4.68,4.68,0,0,0-.83-.16h0l-.43,0h0l-.43,0h0a4.41,4.41,0,0,0-.82.16l-.33.1v0a4.68,4.68,0,0,0-2,1.51,4.59,4.59,0,0,0-.92,2.77,4.59,4.59,0,0,0,1.45,3.52c.18.19.35.36.46.5a.86.86,0,0,1,.18.34,7,7,0,0,1,.09,1.1v0a1.11,1.11,0,0,0,1.11,1.11h2.56a1.11,1.11,0,0,0,1.11-1.11v0a6.17,6.17,0,0,1,.1-1.1.62.62,0,0,1,.08-.21,3.79,3.79,0,0,1,.47-.53,6.73,6.73,0,0,0,1-1.32A4.85,4.85,0,0,0,44.08,39.71Zm-3.31,6.91H38.23a.47.47,0,0,0-.48.48.48.48,0,0,0,.48.48h2.54a.48.48,0,0,0,.48-.48A.47.47,0,0,0,40.77,46.62Zm0,1.21H38.23a.48.48,0,1,0,0,1h2.54a.48.48,0,1,0,0-1ZM39.72,49H38.41v0c0,.27.4.48.78.48h.62c.38,0,.78-.21.78-.48v0Z"/></g></g></g></g></g></g></g></svg>