<?xml version="1.0" standalone="no"?>
<!DOCTYPE svg PUBLIC "-//W3C//DTD SVG 1.1//EN" "http://www.w3.org/Graphics/SVG/1.1/DTD/svg11.dtd" >
<!--
2013-9-30: Created.
-->
<svg>
<metadata>
Created by iconfont
</metadata>
<defs>

<font id="iconfont" horiz-adv-x="1024" >
  <font-face
    font-family="iconfont"
    font-weight="500"
    font-stretch="normal"
    units-per-em="1024"
    ascent="896"
    descent="-128"
  />
    <missing-glyph />
    
    <glyph glyph-name="new" unicode="&#58920;" d="M887.872 630.4 136.128 630.4C96.288 630.4 64 598.112 64 558.272l0-349.44c0-39.84 32.288-72.128 72.128-72.128l751.744 0c39.84 0 72.128 32.288 72.128 72.128l0 349.44C960 598.112 927.712 630.4 887.872 630.4L887.872 630.4zM323.04 269.984 271.584 269.984l-97.632 189.504 0-188.48L143.168 271.008l0 224.096 45.568 0 100.448-194.336 3.04 0 0 195.36 30.784 0L323.008 269.984 323.04 269.984zM527.072 399.328l0-30.784-125.344-0.064c0.032-2.304 0.064-4.416 0.064-6.368l0-0.16c0.128-39.52 12.672-59.552 37.28-59.552l88 0 0-30.784-88 0c-19.392 0-35.904 7.296-47.776 21.12-13.344 15.552-20.16 38.784-20.288 69.056-0.16 11.584-0.256 29.12-0.256 53.6 0 50.944 35.392 75.072 68.512 80.672l1.44 0.224c13.728 1.376 79.168 0.448 86.592 0.352l-0.448-30.784c-27.936 0.416-72.48 0.704-82.56-0.16-12.96-2.208-42.752-11.552-42.752-50.304 0-5.76 0-11.104 0-16.096L527.072 399.328 527.072 399.328zM815.872 269.984l-45.76 0-45.696 180.224-50.88-180.224-47.104 0L560.768 496l33.568 0 58.048-184.992 1.92 1.024 51.2 184.608 38.848 0 49.312-194.368 60.192 193.792 32.416 0L815.872 269.984 815.872 269.984zM815.872 269.984"  horiz-adv-x="1024" />

    
    <glyph glyph-name="baobiaozhongxinweidianji" unicode="&#58882;" d=""  horiz-adv-x="1024" />

    
    <glyph glyph-name="zuocecaidanjiantouxiangshang" unicode="&#58891;" d="M1663.12544-127.611176a120.228626 120.228626 0 0 0-89.531955 38.370839L895.708677 586.086414 217.82387-89.240337a122.786682 122.786682 0 0 0-179.063912 0 122.786682 122.786682 0 0 0 0 179.063911l767.416763 767.416763a122.786682 122.786682 0 0 0 179.063912 0l767.416763-767.416763a122.786682 122.786682 0 0 0 0-179.063911 120.228626 120.228626 0 0 0-89.531956-38.370839z"  horiz-adv-x="1792" />

    
    <glyph glyph-name="zhaopinguanlixuanzhong" unicode="&#58892;" d="M983.00038 582.639721A511.608619 511.608619 0 1 1 1023.289559 384.391381a502.015958 502.015958 0 0 1-40.289179 198.24834zM511.680939-31.290623A415.682003 415.682003 0 1 0 927.362943 384.391381 416.321514 416.321514 0 0 0 511.680939-31.290623zM585.864189 26.904858a15.348259 15.348259 0 0 1-12.150704-17.906302 14.708748 14.708748 0 0 1 17.906301-12.150705 395.217658 395.217658 0 0 1 319.755387 387.54353 15.348259 15.348259 0 1 1-30.696517 0 365.160652 365.160652 0 0 0-294.814467-357.486523zM511.680939 0.684916a15.987769 15.987769 0 1 1 15.98777 15.987769A15.987769 15.987769 0 0 1 511.680939 0.684916zM668.361079 262.244823l127.902155 332.545602a55.637437 55.637437 0 0 1-12.790216 63.951078 58.19548 58.19548 0 0 1-63.951077 12.790215l-332.545603-127.902155a59.474502 59.474502 0 0 1-31.975538-32.615049l-131.099709-332.545603a57.55597 57.55597 0 0 1 74.822761-74.82276l332.545602 127.902155a58.19548 58.19548 0 0 1 37.091625 30.696517z m-352.370437-75.462272l111.914386 283.942784 283.303273 111.274875-111.274875-283.942784zM462.43861 384.391381A51.160862 51.160862 0 1 1 511.680939 435.552243a51.160862 51.160862 0 0 1-49.242329-51.160862z"  horiz-adv-x="1024" />

    
    <glyph glyph-name="zhaopinguanliweixuanzhong" unicode="&#58893;" d="M983.00038 582.639721A511.608619 511.608619 0 1 1 1023.289559 384.391381a502.015958 502.015958 0 0 1-40.289179 198.24834zM511.680939-31.290623A415.682003 415.682003 0 1 0 927.362943 384.391381 416.321514 416.321514 0 0 0 511.680939-31.290623zM585.864189 26.904858a15.348259 15.348259 0 0 1-12.150704-17.906302 14.708748 14.708748 0 0 1 17.906301-12.150705 395.217658 395.217658 0 0 1 319.755387 387.54353 15.348259 15.348259 0 1 1-30.696517 0 365.160652 365.160652 0 0 0-294.814467-357.486523zM511.680939 0.684916a15.987769 15.987769 0 1 1 15.98777 15.987769A15.987769 15.987769 0 0 1 511.680939 0.684916zM668.361079 262.244823l127.902155 332.545602a55.637437 55.637437 0 0 1-12.790216 63.951078 58.19548 58.19548 0 0 1-63.951077 12.790215l-332.545603-127.902155a59.474502 59.474502 0 0 1-31.975538-32.615049l-131.099709-332.545603a57.55597 57.55597 0 0 1 74.822761-74.82276l332.545602 127.902155a58.19548 58.19548 0 0 1 37.091625 30.696517z m-352.370437-75.462272l111.914386 283.942784 283.303273 111.274875-111.274875-283.942784zM462.43861 384.391381A51.160862 51.160862 0 1 1 511.680939 435.552243a51.160862 51.160862 0 0 1-49.242329-51.160862z"  horiz-adv-x="1024" />

    
    <glyph glyph-name="xinchouguanlidianji" unicode="&#58895;" d="M550.682493 302.678086a348.251658 348.251658 0 0 1-33.657458-49.455857h-22.667268v-58.385386A300.856462 300.856462 0 0 1 481.993803 139.885891H398.880488V253.222229H275.927733v49.455857h122.952755V366.558568H275.927733V414.640651h94.103506L225.098103 679.092107h107.154356l114.023225-227.359564 114.710113 227.359564h107.154356L523.207017 414.640651H619.371183v-48.082083H495.044654v-63.880482zM894.125943 414.640651V826.772791a61.132934 61.132934 0 0 1-68.68869 68.68869H69.861663a61.819821 61.819821 0 0 1-68.68869-68.68869v-824.26428a62.506708 62.506708 0 0 1 68.68869-68.68869h343.44345v102.346148H103.519121v755.57559h686.8869V414.640651zM783.537152-128h-43.273874l-8.92953 16.485286a56.324726 56.324726 0 0 1-29.536137 26.788589 61.132934 61.132934 0 0 1-39.83944 0l-17.172172-5.495096-14.424625 11.677078a305.66467 305.66467 0 0 0-32.970572 33.657458l-10.99019 14.424625 4.808208 17.172172a63.193595 63.193595 0 0 1 0 40.526327 59.072273 59.072273 0 0 1-26.788589 29.536137L550.682493 71.197201v17.859059a218.430034 218.430034 0 0 0 0 47.395196v17.85906l16.485286 8.92953a59.072273 59.072273 0 0 1 26.788589 29.536136 57.011613 57.011613 0 0 1 0 39.83944l-4.808208 17.172173 11.677077 14.424625a254.148153 254.148153 0 0 0 33.657458 32.970571l14.424625 10.99019 17.172172-5.495095a68.68869 68.68869 0 0 1 39.839441 0 60.446047 60.446047 0 0 1 30.223023 26.788589l8.242643 16.485286h17.859059a274.75476 274.75476 0 0 0 47.395196 0H825.437253l8.242643-16.485286a68.68869 68.68869 0 0 1 29.536137-26.788589 61.132934 61.132934 0 0 1 39.83944 0l17.859059 5.495095 14.424625-11.677077a305.66467 305.66467 0 0 0 32.970571-33.657458l10.990191-14.424625-5.495096-17.172172a57.011613 57.011613 0 0 1 0-39.839441 59.072273 59.072273 0 0 1 26.101703-30.223023l16.485285-8.92953v-17.859059a265.138343 265.138343 0 0 0 0-46.708309v-18.545947l-16.485285-8.242643a59.072273 59.072273 0 0 1-26.788589-29.536136 63.193595 63.193595 0 0 1 0-40.526327l5.495095-17.172173-11.677078-13.737738a311.159766 311.159766 0 0 0-33.657458-33.657458l-14.424624-10.99019-17.172173 5.495095a63.193595 63.193595 0 0 1-40.526327 0 57.6985 57.6985 0 0 1-29.536137-26.101702l-8.929529-16.485286h-18.545947z m0 68.68869a129.821624 129.821624 0 0 0 53.577178 40.526327 137.37738 137.37738 0 0 0 68.68869 8.242643 129.134737 129.134737 0 0 0 9.616417 68.68869 131.195398 131.195398 0 0 0 40.526327 52.203404 131.882285 131.882285 0 0 0-39.83944 52.890292 137.37738 137.37738 0 0 0-8.242643 68.688689 121.578981 121.578981 0 0 0-68.68869 8.92953 128.44785 128.44785 0 0 0-52.203404 41.213214 133.256059 133.256059 0 0 0-52.890292-40.526327 129.821624 129.821624 0 0 0-68.68869-7.555756 130.508511 130.508511 0 0 0-8.929529-68.68869 133.256059 133.256059 0 0 0-41.213214-52.203404 125.013416 125.013416 0 0 0 48.082083-118.831434 128.44785 128.44785 0 0 0 68.68869-9.616416 125.013416 125.013416 0 0 0 49.455857-43.960762zM789.719134 2.508511A103.033035 103.033035 0 1 0 894.125943 105.541546a103.033035 103.033035 0 0 0-104.406809-103.033035z m0 137.37738a35.031232 35.031232 0 0 1-34.344345-34.344345 34.344345 34.344345 0 0 1 34.344345-34.344345 34.344345 34.344345 0 0 1 34.344345 34.344345 34.344345 34.344345 0 0 1-34.344345 34.344345z"  horiz-adv-x="1024" />

    
    <glyph glyph-name="xinchouguanliweidianji" unicode="&#58896;" d="M550.682493 302.678086a348.251658 348.251658 0 0 1-33.657458-49.455857h-22.667268v-58.385386A300.856462 300.856462 0 0 1 481.993803 139.885891H398.880488V253.222229H275.927733v49.455857h122.952755V366.558568H275.927733V414.640651h94.103506L225.098103 679.092107h107.154356l114.023225-227.359564 114.710113 227.359564h107.154356L523.207017 414.640651H619.371183v-48.082083H495.044654v-63.880482zM894.125943 414.640651V826.772791a61.132934 61.132934 0 0 1-68.68869 68.68869H69.861663a61.819821 61.819821 0 0 1-68.68869-68.68869v-824.26428a62.506708 62.506708 0 0 1 68.68869-68.68869h343.44345v102.346148H103.519121v755.57559h686.8869V414.640651zM783.537152-128h-43.273874l-8.92953 16.485286a56.324726 56.324726 0 0 1-29.536137 26.788589 61.132934 61.132934 0 0 1-39.83944 0l-17.172172-5.495096-14.424625 11.677078a305.66467 305.66467 0 0 0-32.970572 33.657458l-10.99019 14.424625 4.808208 17.172172a63.193595 63.193595 0 0 1 0 40.526327 59.072273 59.072273 0 0 1-26.788589 29.536137L550.682493 71.197201v17.859059a218.430034 218.430034 0 0 0 0 47.395196v17.85906l16.485286 8.92953a59.072273 59.072273 0 0 1 26.788589 29.536136 57.011613 57.011613 0 0 1 0 39.83944l-4.808208 17.172173 11.677077 14.424625a254.148153 254.148153 0 0 0 33.657458 32.970571l14.424625 10.99019 17.172172-5.495095a68.68869 68.68869 0 0 1 39.839441 0 60.446047 60.446047 0 0 1 30.223023 26.788589l8.242643 16.485286h17.859059a274.75476 274.75476 0 0 0 47.395196 0H825.437253l8.242643-16.485286a68.68869 68.68869 0 0 1 29.536137-26.788589 61.132934 61.132934 0 0 1 39.83944 0l17.859059 5.495095 14.424625-11.677077a305.66467 305.66467 0 0 0 32.970571-33.657458l10.990191-14.424625-5.495096-17.172172a57.011613 57.011613 0 0 1 0-39.839441 59.072273 59.072273 0 0 1 26.101703-30.223023l16.485285-8.92953v-17.859059a265.138343 265.138343 0 0 0 0-46.708309v-18.545947l-16.485285-8.242643a59.072273 59.072273 0 0 1-26.788589-29.536136 63.193595 63.193595 0 0 1 0-40.526327l5.495095-17.172173-11.677078-13.737738a311.159766 311.159766 0 0 0-33.657458-33.657458l-14.424624-10.99019-17.172173 5.495095a63.193595 63.193595 0 0 1-40.526327 0 57.6985 57.6985 0 0 1-29.536137-26.101702l-8.929529-16.485286h-18.545947z m0 68.68869a129.821624 129.821624 0 0 0 53.577178 40.526327 137.37738 137.37738 0 0 0 68.68869 8.242643 129.134737 129.134737 0 0 0 9.616417 68.68869 131.195398 131.195398 0 0 0 40.526327 52.203404 131.882285 131.882285 0 0 0-39.83944 52.890292 137.37738 137.37738 0 0 0-8.242643 68.688689 121.578981 121.578981 0 0 0-68.68869 8.92953 128.44785 128.44785 0 0 0-52.203404 41.213214 133.256059 133.256059 0 0 0-52.890292-40.526327 129.821624 129.821624 0 0 0-68.68869-7.555756 130.508511 130.508511 0 0 0-8.929529-68.68869 133.256059 133.256059 0 0 0-41.213214-52.203404 125.013416 125.013416 0 0 0 48.082083-118.831434 128.44785 128.44785 0 0 0 68.68869-9.616416 125.013416 125.013416 0 0 0 49.455857-43.960762zM789.719134 2.508511A103.033035 103.033035 0 1 0 894.125943 105.541546a103.033035 103.033035 0 0 0-104.406809-103.033035z m0 137.37738a35.031232 35.031232 0 0 1-34.344345-34.344345 34.344345 34.344345 0 0 1 34.344345-34.344345 34.344345 34.344345 0 0 1 34.344345 34.344345 34.344345 34.344345 0 0 1-34.344345 34.344345z"  horiz-adv-x="1024" />

    
    <glyph glyph-name="xitongshezhidianji" unicode="&#58897;" d="M868.205714 559.542857a19.017143 19.017143 0 0 1 19.017143 19.017143V749.714286a6.582857 6.582857 0 0 1 0 4.388571 19.748571 19.748571 0 0 1-35.108571-10.971428V603.428571a10.24 10.24 0 0 0 0-5.12h-77.531429a6.582857 6.582857 0 0 1-5.12 0 19.748571 19.748571 0 0 1 10.971429-35.108571zM686.811429 577.828571a19.017143 19.017143 0 1 1 37.302857 0 19.017143 19.017143 0 0 1-37.302857 0zM1024-128H674.377143a123.611429 123.611429 0 0 0-123.611429 124.342857V348.891429h352.548572A123.611429 123.611429 0 0 0 1024 225.28zM658.285714 237.714286v-241.371429a13.165714 13.165714 0 0 1 13.897143-13.165714h242.102857V225.28a13.165714 13.165714 0 0 1-10.971428 12.434286z m-305.737143-365.714286H0V225.28a123.611429 123.611429 0 0 0 123.611429 123.611429H475.428571v-352.548572A122.88 122.88 0 0 0 352.548571-128zM109.714286-16.822857h242.834285A13.165714 13.165714 0 0 1 365.714286-3.657143V237.714286H123.611429a13.165714 13.165714 0 0 1-13.897143-13.897143z m365.714285 438.857143H123.611429A123.611429 123.611429 0 0 0 0 543.451429V896h352.548571A123.611429 123.611429 0 0 0 475.428571 772.388571z m-365.714285 365.714285v-244.297142a13.165714 13.165714 0 0 1 13.897143-13.165715H365.714286V772.388571a13.165714 13.165714 0 0 1-13.165715 13.897143zM550.765714 420.571429V772.388571A123.611429 123.611429 0 0 0 674.377143 896H1024v-352.548571a122.88 122.88 0 0 0-120.685714-122.88z m98.742857 98.742857h253.805715a22.674286 22.674286 0 0 1 24.137143 24.137143V797.257143H674.377143a24.868571 24.868571 0 0 1-24.868572-24.868572z"  horiz-adv-x="1026" />

    
    <glyph glyph-name="xitongshezhiweidianji" unicode="&#58898;" d="M868.205714 559.542857a19.017143 19.017143 0 0 1 19.017143 19.017143V749.714286a6.582857 6.582857 0 0 1 0 4.388571 19.748571 19.748571 0 0 1-35.108571-10.971428V603.428571a10.24 10.24 0 0 0 0-5.12h-77.531429a6.582857 6.582857 0 0 1-5.12 0 19.748571 19.748571 0 0 1 10.971429-35.108571zM686.811429 577.828571a19.017143 19.017143 0 1 1 37.302857 0 19.017143 19.017143 0 0 1-37.302857 0zM1024-128H674.377143a123.611429 123.611429 0 0 0-123.611429 124.342857V348.891429h352.548572A123.611429 123.611429 0 0 0 1024 225.28zM658.285714 237.714286v-241.371429a13.165714 13.165714 0 0 1 13.897143-13.165714h242.102857V225.28a13.165714 13.165714 0 0 1-10.971428 12.434286z m-305.737143-365.714286H0V225.28a123.611429 123.611429 0 0 0 123.611429 123.611429H475.428571v-352.548572A122.88 122.88 0 0 0 352.548571-128zM109.714286-16.822857h242.834285A13.165714 13.165714 0 0 1 365.714286-3.657143V237.714286H123.611429a13.165714 13.165714 0 0 1-13.897143-13.897143z m365.714285 438.857143H123.611429A123.611429 123.611429 0 0 0 0 543.451429V896h352.548571A123.611429 123.611429 0 0 0 475.428571 772.388571z m-365.714285 365.714285v-244.297142a13.165714 13.165714 0 0 1 13.897143-13.165715H365.714286V772.388571a13.165714 13.165714 0 0 1-13.165715 13.897143zM550.765714 420.571429V772.388571A123.611429 123.611429 0 0 0 674.377143 896H1024v-352.548571a122.88 122.88 0 0 0-120.685714-122.88z m98.742857 98.742857h253.805715a22.674286 22.674286 0 0 1 24.137143 24.137143V797.257143H674.377143a24.868571 24.868571 0 0 1-24.868572-24.868572z"  horiz-adv-x="1026" />

    
    <glyph glyph-name="shouyedianji" unicode="&#58899;" d="M574.121901 885.077348a43.007943 43.007943 0 0 1-56.661258 0L15.018647 439.296609a48.469269 48.469269 0 0 1-4.778661-64.853247 43.007943 43.007943 0 0 1 62.122584-5.461326l68.266576 60.757252v-439.636747a119.466507 119.466507 0 0 1 32.767956-83.285222 107.86119 107.86119 0 0 1 79.871894-34.815954h585.044553a106.495858 106.495858 0 0 1 79.189228 34.815954 120.149173 120.149173 0 0 1 33.450622 83.285222V429.739288l68.266575-60.757252a42.325277 42.325277 0 0 1 62.122584 5.461326 47.786603 47.786603 0 0 1-5.461326 64.853247z m-320.852905-920.23344a24.575967 24.575967 0 0 0-17.066644 7.509324 27.30663 27.30663 0 0 0-6.826658 17.749309V508.24585L546.132605 788.821476l316.074245-280.575626v-518.143309a27.30663 27.30663 0 0 0-6.826657-17.749309 24.575967 24.575967 0 0 0-17.066644-7.509324zM325.631566 554.667122l-19.114641-17.066644a19.114641 19.114641 0 0 1 0-25.941299 16.383978 16.383978 0 0 1 23.893301 0l19.114641 17.066644L546.132605 703.488257l68.266576-60.757253a15.018647 15.018647 0 0 1 17.066644 0 18.431975 18.431975 0 0 1 11.605318 13.653315 19.114641 19.114641 0 0 1-6.143992 17.066644l-79.871894 68.266576a17.74931 17.74931 0 0 1-22.52797 0z m49.8346-427.348764a48.469269 48.469269 0 0 1 48.469269-48.469268h244.394341a49.151934 49.151934 0 0 1 48.469268 48.469268V369.664702A48.469269 48.469269 0 0 1 668.329776 418.13397H423.935435a48.469269 48.469269 0 0 1-48.469269-48.469268zM614.399181 179.200956H477.86603v136.533151h136.533151z"  horiz-adv-x="1092" />

    
    <glyph glyph-name="shouyeweidianji" unicode="&#58900;" d="M574.121901 885.077348a43.007943 43.007943 0 0 1-56.661258 0L15.018647 439.296609a48.469269 48.469269 0 0 1-4.778661-64.853247 43.007943 43.007943 0 0 1 62.122584-5.461326l68.266576 60.757252v-439.636747a119.466507 119.466507 0 0 1 32.767956-83.285222 107.86119 107.86119 0 0 1 79.871894-34.815954h585.044553a106.495858 106.495858 0 0 1 79.189228 34.815954 120.149173 120.149173 0 0 1 33.450622 83.285222V429.739288l68.266575-60.757252a42.325277 42.325277 0 0 1 62.122584 5.461326 47.786603 47.786603 0 0 1-5.461326 64.853247z m-320.852905-920.23344a24.575967 24.575967 0 0 0-17.066644 7.509324 27.30663 27.30663 0 0 0-6.826658 17.749309V508.24585L546.132605 788.821476l316.074245-280.575626v-518.143309a27.30663 27.30663 0 0 0-6.826657-17.749309 24.575967 24.575967 0 0 0-17.066644-7.509324zM325.631566 554.667122l-19.114641-17.066644a19.114641 19.114641 0 0 1 0-25.941299 16.383978 16.383978 0 0 1 23.893301 0l19.114641 17.066644L546.132605 703.488257l68.266576-60.757253a15.018647 15.018647 0 0 1 17.066644 0 18.431975 18.431975 0 0 1 11.605318 13.653315 19.114641 19.114641 0 0 1-6.143992 17.066644l-79.871894 68.266576a17.74931 17.74931 0 0 1-22.52797 0z m49.8346-427.348764a48.469269 48.469269 0 0 1 48.469269-48.469268h244.394341a49.151934 49.151934 0 0 1 48.469268 48.469268V369.664702A48.469269 48.469269 0 0 1 668.329776 418.13397H423.935435a48.469269 48.469269 0 0 1-48.469269-48.469268zM614.399181 179.200956H477.86603v136.533151h136.533151z"  horiz-adv-x="1092" />

    
    <glyph glyph-name="shenhezhongxindianji" unicode="&#58902;" d="M192.34437 704.07569a53.738807 53.738807 0 0 1-63.97477-63.97477v-703.722469a58.856788 58.856788 0 0 1 63.97477-63.97477h639.747699a57.577293 57.577293 0 0 1 63.97477 63.97477V640.10092a56.937545 56.937545 0 0 1-63.97477 63.97477H672.155145v-94.682659h127.949539v-639.7477h-575.772929v639.7477h63.97477V704.07569zM493.025789 128.302761a31.987385 31.987385 0 0 0-21.751422 8.31672l-83.167201 76.769724a31.987385 31.987385 0 0 0 0 44.782339 31.987385 31.987385 0 0 0 45.422087 0l54.378554-49.900321 92.123669 161.21642a31.987385 31.987385 0 0 0 43.502843 10.875711 31.347637 31.347637 0 0 0 10.875711-44.142591l-113.87509-191.92431a31.987385 31.987385 0 0 0-23.030917-15.353945zM670.875649 544.138765h-319.87385a63.97477 63.97477 0 0 0-63.97477 63.97477V704.07569a63.97477 63.97477 0 0 0 63.97477 63.97477H384.26868a127.94954 127.94954 0 0 0 255.89908 0h31.987385a63.97477 63.97477 0 0 0 63.97477-63.97477v-95.962155a63.97477 63.97477 0 0 0-65.254266-63.97477z m-319.87385 159.936925v-95.962155h319.87385V704.07569H576.19299V768.05046a63.97477 63.97477 0 0 1-127.94954 0v-63.97477zM512.21822 0.353221a255.89908 255.89908 0 1 0 255.89908 255.899079 255.89908 255.89908 0 0 0-255.89908-255.899079z m0 447.823389a191.92431 191.92431 0 1 1 191.92431-191.92431 191.92431 191.92431 0 0 1-191.92431 191.92431z"  horiz-adv-x="1024" />

    
    <glyph glyph-name="shenhezhongxinweidianji" unicode="&#58903;" d="M192.34437 704.07569a53.738807 53.738807 0 0 1-63.97477-63.97477v-703.722469a58.856788 58.856788 0 0 1 63.97477-63.97477h639.747699a57.577293 57.577293 0 0 1 63.97477 63.97477V640.10092a56.937545 56.937545 0 0 1-63.97477 63.97477H672.155145v-94.682659h127.949539v-639.7477h-575.772929v639.7477h63.97477V704.07569zM493.025789 128.302761a31.987385 31.987385 0 0 0-21.751422 8.31672l-83.167201 76.769724a31.987385 31.987385 0 0 0 0 44.782339 31.987385 31.987385 0 0 0 45.422087 0l54.378554-49.900321 92.123669 161.21642a31.987385 31.987385 0 0 0 43.502843 10.875711 31.347637 31.347637 0 0 0 10.875711-44.142591l-113.87509-191.92431a31.987385 31.987385 0 0 0-23.030917-15.353945zM670.875649 544.138765h-319.87385a63.97477 63.97477 0 0 0-63.97477 63.97477V704.07569a63.97477 63.97477 0 0 0 63.97477 63.97477H384.26868a127.94954 127.94954 0 0 0 255.89908 0h31.987385a63.97477 63.97477 0 0 0 63.97477-63.97477v-95.962155a63.97477 63.97477 0 0 0-65.254266-63.97477z m-319.87385 159.936925v-95.962155h319.87385V704.07569H576.19299V768.05046a63.97477 63.97477 0 0 1-127.94954 0v-63.97477zM512.21822 0.353221a255.89908 255.89908 0 1 0 255.89908 255.899079 255.89908 255.89908 0 0 0-255.89908-255.899079z m0 447.823389a191.92431 191.92431 0 1 1 191.92431-191.92431 191.92431 191.92431 0 0 1-191.92431 191.92431z"  horiz-adv-x="1024" />

    
    <glyph glyph-name="renshiguanlixuanzhong" unicode="&#58904;" d="M1007.67323 719.280004L843.236837 884.398705a40.256212 40.256212 0 0 1-28.656964 11.599248 39.573904 39.573904 0 0 1-27.974656-11.599248L351.974586 449.768075a43.667756 43.667756 0 0 1-7.505395-15.010791l-90.064746-251.089595a40.256212 40.256212 0 0 1 51.173151-51.173151l252.454212 85.970894a46.39699 46.39699 0 0 1 15.6931 9.552321l433.948322 434.630631a38.891595 38.891595 0 0 1 0 56.63162z m-650.240174-484.439164L412.700059 399.277233l112.580933-105.757846zM549.161796 314.670956L437.94548 423.158036l376.634393 375.952084L923.066953 691.305348zM575.771834 418.381876a15.6931 15.6931 0 0 1 21.151569 0l262.688843 262.688842a15.010791 15.010791 0 0 1-21.151569 21.833878L575.771834 437.486519a14.328482 14.328482 0 0 1 0-19.104643zM480.930927 827.767085v-102.346302H107.02577v-750.539551h682.308682V350.151007H890.316137v-409.385209a60.725473 60.725473 0 0 0-68.230869-68.230868H71.545718q-68.230868 0-68.230868 68.230868V759.536217a61.407781 61.407781 0 0 0 68.230868 68.230868z"  horiz-adv-x="1024" />

    
    <glyph glyph-name="renshiguanliweixuanzhong" unicode="&#58905;" d="M1007.67323 719.280004L843.236837 884.398705a40.256212 40.256212 0 0 1-28.656964 11.599248 39.573904 39.573904 0 0 1-27.974656-11.599248L351.974586 449.768075a43.667756 43.667756 0 0 1-7.505395-15.010791l-90.064746-251.089595a40.256212 40.256212 0 0 1 51.173151-51.173151l252.454212 85.970894a46.39699 46.39699 0 0 1 15.6931 9.552321l433.948322 434.630631a38.891595 38.891595 0 0 1 0 56.63162z m-650.240174-484.439164L412.700059 399.277233l112.580933-105.757846zM549.161796 314.670956L437.94548 423.158036l376.634393 375.952084L923.066953 691.305348zM575.771834 418.381876a15.6931 15.6931 0 0 1 21.151569 0l262.688843 262.688842a15.010791 15.010791 0 0 1-21.151569 21.833878L575.771834 437.486519a14.328482 14.328482 0 0 1 0-19.104643zM480.930927 827.767085v-102.346302H107.02577v-750.539551h682.308682V350.151007H890.316137v-409.385209a60.725473 60.725473 0 0 0-68.230869-68.230868H71.545718q-68.230868 0-68.230868 68.230868V759.536217a61.407781 61.407781 0 0 0 68.230868 68.230868z"  horiz-adv-x="1024" />

    
    <glyph glyph-name="baobiaozhongxindianji" unicode="&#58906;" d="M607.961088 895.385969H96.268743a56.286158 56.286158 0 0 1-63.961543-63.961543v-831.500061a56.286158 56.286158 0 0 1 63.961543-63.961543h520.646961l-63.961543 95.3027H126.970284v767.538517H543.999545V639.539797h159.264242v-337.077333L799.845717 313.975542V703.50134H607.961088zM767.22533-127.998721A223.865401 223.865401 0 1 0 991.730347 95.86668a223.865401 223.865401 0 0 0-224.505017-223.865401z m0 383.769259A159.903858 159.903858 0 1 1 927.768804 95.86668a159.903858 159.903858 0 0 1-160.543474 159.903858zM799.845717 127.847452h31.980772a32.620387 32.620387 0 0 0 31.980772-31.980772 31.980772 31.980772 0 0 0-31.980772-31.980771h-63.961543a31.980772 31.980772 0 0 0-31.980772 31.980771v63.961543a31.980772 31.980772 0 0 0 31.980772 31.980772 32.620387 32.620387 0 0 0 31.980771-31.980772zM255.532985 703.50134h127.923087a32.620387 32.620387 0 0 0 31.980771-31.980772 31.980772 31.980772 0 0 0-31.980771-31.980771h-127.923087A31.980772 31.980772 0 0 0 224.191829 671.520568a31.980772 31.980772 0 0 0 31.341156 31.980772z m0-127.923086h191.88463a32.620387 32.620387 0 0 0 31.980771-31.980772 31.980772 31.980772 0 0 0-31.980771-31.980772h-191.88463A31.980772 31.980772 0 0 0 224.191829 543.597482a31.980772 31.980772 0 0 0 31.341156 31.980772z m0-191.88463h319.807716a32.620387 32.620387 0 0 0 31.980772-31.980771 31.980772 31.980772 0 0 0-31.980772-31.980772h-319.807716A31.980772 31.980772 0 0 0 224.191829 351.712853a31.980772 31.980772 0 0 0 31.341156 31.980771z m0-127.923086h255.846173a32.620387 32.620387 0 0 0 31.980772-31.980772 31.980772 31.980772 0 0 0-31.980772-31.980771h-255.846173a31.980772 31.980772 0 0 0-31.980771 31.980771 31.980772 31.980772 0 0 0 31.980771 31.980772zM607.961088 895.385969l191.884629-191.884629-45.412695-44.77308-191.88463 191.884629z"  horiz-adv-x="1024" />

    
    <glyph glyph-name="baobiaozhongxinweidianji1" unicode="&#58907;" d="M767.22533-127.998721A223.865401 223.865401 0 1 0 991.730347 95.86668a223.865401 223.865401 0 0 0-224.505017-223.865401z m0 383.769259A159.903858 159.903858 0 1 1 927.768804 95.86668a159.903858 159.903858 0 0 1-160.543474 159.903858zM799.845717 127.847452h31.980772a32.620387 32.620387 0 0 0 31.980772-31.980772 31.980772 31.980772 0 0 0-31.980772-31.980771h-63.961543a31.980772 31.980772 0 0 0-31.980772 31.980771v63.961543a31.980772 31.980772 0 0 0 31.980772 31.980772 32.620387 32.620387 0 0 0 31.980771-31.980772zM255.532985 703.50134h127.923087a32.620387 32.620387 0 0 0 31.980771-31.980772 31.980772 31.980772 0 0 0-31.980771-31.980771h-127.923087A31.980772 31.980772 0 0 0 224.191829 671.520568a31.980772 31.980772 0 0 0 31.341156 31.980772z m0-127.923086h191.88463a32.620387 32.620387 0 0 0 31.980771-31.980772 31.980772 31.980772 0 0 0-31.980771-31.980772h-191.88463A31.980772 31.980772 0 0 0 224.191829 543.597482a31.980772 31.980772 0 0 0 31.341156 31.980772z m0-191.88463h319.807716a32.620387 32.620387 0 0 0 31.980772-31.980771 31.980772 31.980772 0 0 0-31.980772-31.980772h-319.807716A31.980772 31.980772 0 0 0 224.191829 351.712853a31.980772 31.980772 0 0 0 31.341156 31.980771z m0-127.923086h255.846173a32.620387 32.620387 0 0 0 31.980772-31.980772 31.980772 31.980772 0 0 0-31.980772-31.980771h-255.846173a31.980772 31.980772 0 0 0-31.980771 31.980771 31.980772 31.980772 0 0 0 31.980771 31.980772zM607.961088 895.385969l191.884629-191.884629-45.412695-44.77308-191.88463 191.884629zM607.961088 895.385969H96.268743a56.286158 56.286158 0 0 1-63.961543-63.961543v-831.500061a56.286158 56.286158 0 0 1 63.961543-63.961543h520.646961l-63.961543 95.3027H126.970284v767.538517H543.999545V639.539797h159.264242v-337.077333L799.845717 313.975542V703.50134H607.961088z"  horiz-adv-x="1024" />

    
    <glyph glyph-name="shurukuangxialajiantou" unicode="&#58908;" d="M921.625689-127.993858a96.22617 96.22617 0 0 0-71.657787 30.71048l-818.946126 818.946127a98.273535 98.273535 0 0 0 0 143.315572 98.273535 98.273535 0 0 0 143.315572 0L921.625689 119.737345 1668.914029 864.978321a98.273535 98.273535 0 0 0 143.315572 0 98.273535 98.273535 0 0 0 0-143.315572l-818.946126-818.946127A96.22617 96.22617 0 0 0 921.625689-127.993858z"  horiz-adv-x="1843" />

    
    <glyph glyph-name="biaotoushezhi" unicode="&#58909;" d="M522.804629-128h-44.612662l-35.550714 3.485364-9.75902 34.156569a178.450647 178.450647 0 0 1-90.619469 106.652145 178.450647 178.450647 0 0 1-139.414568 4.879509l-33.459496-13.244383-24.39755 25.791695a531.169503 531.169503 0 0 0-55.068754 69.707283L69.707284 134.099387l20.912185 29.27706a174.26821 174.26821 0 0 1 26.488768 139.414567 174.26821 174.26821 0 0 1-86.437032 111.531654L0 431.749489l4.87951 35.550715a517.228046 517.228046 0 0 0 19.518039 86.437032l11.153166 34.156569h35.550715a177.056501 177.056501 0 0 1 124.078965 66.22192 176.359428 176.359428 0 0 1 36.247787 139.414568L225.8516 826.292716l30.671205 18.123894A473.312457 473.312457 0 0 0 336.686181 883.452689L370.145677 896l23.700477-26.488768a181.238938 181.238938 0 0 1 257.91695 0L675.463581 896l33.459496-12.547311a531.169503 531.169503 0 0 0 80.163376-39.036079l29.974132-18.123894-5.576582-34.853642a174.26821 174.26821 0 0 1 36.94486-139.414568 177.056501 177.056501 0 0 1 125.473111-62.039482h35.550715l10.456092-34.156569a519.319265 519.319265 0 0 0 20.215113-86.437032l4.87951-35.550715-31.368278-17.426821a174.26821 174.26821 0 0 1-57.159973-250.946222l20.215112-29.277059-19.518039-29.974132a524.895848 524.895848 0 0 0-55.765827-69.707284l-24.397549-25.791695-32.762424 13.244384a178.450647 178.450647 0 0 1-139.414568-4.87951 176.359428 176.359428 0 0 1-90.619469-106.652144l-10.456092-34.156569-34.853642-3.485365z m0 104.560926h6.970728A278.829135 278.829135 0 0 0 847.640572 129.219877l4.182437 4.87951a278.829135 278.829135 0 0 0 79.466303 348.53642v6.273655A278.829135 278.829135 0 0 0 766.780123 588.590878a278.829135 278.829135 0 0 0-62.736556 181.238938h-5.576583a287.19401 287.19401 0 0 0-356.901293 0h-6.273656A278.829135 278.829135 0 0 0 278.829135 588.590878a278.829135 278.829135 0 0 0-160.326752-97.590197 20.215112 20.215112 0 0 1 0-6.273656 283.011572 283.011572 0 0 0 98.28727-158.932607 282.3145 282.3145 0 0 0-23.003404-189.603812l4.182437-4.87951a278.829135 278.829135 0 0 0 189.603812-20.215112 274.646698 274.646698 0 0 0 131.746767-134.535058zM522.804629 185.682777a209.121852 209.121852 0 1 0 209.121852 209.121852 209.121852 209.121852 0 0 0-209.121852-209.121852z m0 313.682778A104.560926 104.560926 0 1 1 627.365555 394.804629a104.560926 104.560926 0 0 1-104.560926 104.560926z"  horiz-adv-x="1047" />

    
    <glyph glyph-name="dingbucaidanjiantouxiangxia" unicode="&#58910;" d="M896.042054-127.992323a120.273394 120.273394 0 0 0-89.565293 38.385126l-767.702515 767.702515a122.832402 122.832402 0 0 0 0 179.130587 122.832402 122.832402 0 0 0 179.130587 0L896.042054 181.647692 1574.179276 857.225905a122.832402 122.832402 0 0 0 179.130587 0 122.832402 122.832402 0 0 0 0-179.130587l-767.702515-767.702515A120.273394 120.273394 0 0 0 896.042054-127.992323z"  horiz-adv-x="1792" />

    
    <glyph glyph-name="guanbi" unicode="&#58911;" d="M149.87469 669.242144a483.447005 483.447005 0 0 1-64.362082-93.617574 453.460126 453.460126 0 0 1-40.957689-107.513933A460.042612 460.042612 0 0 1 30.65856 354.014218 464.430936 464.430936 0 0 1 68.6907 164.584907a502.463075 502.463075 0 0 1 103.125609-152.859946A502.463075 502.463075 0 0 1 323.21348-89.937874a464.430936 464.430936 0 0 1 189.429311-38.032139 460.042612 460.042612 0 0 1 186.503761 38.032139 502.463075 502.463075 0 0 1 152.859946 103.12561A477.595907 477.595907 0 0 1 955.132108 164.584907a464.430936 464.430936 0 0 1 38.032139 187.966536A442.489317 442.489317 0 0 1 981.46205 465.916475a464.430936 464.430936 0 0 1-38.032139 103.856996 409.576888 409.576888 0 0 1-61.436533 92.886187 511.97111 511.97111 0 0 1-83.378153 77.527054 69.481794 69.481794 0 0 1-95.811736-13.896358A63.630695 63.630695 0 0 1 688.90713 676.556017a65.824857 65.824857 0 0 1 27.06133-45.346012 336.438158 336.438158 0 0 0 104.588384-122.14168 342.289257 342.289257 0 0 0 35.837978-155.054107 329.124285 329.124285 0 0 0-27.06133-133.843876 335.706771 335.706771 0 0 0-73.13873-109.708095 355.454228 355.454228 0 0 0-109.708095-73.13873 334.243996 334.243996 0 0 0-133.843876-27.06133 329.124285 329.124285 0 0 0-133.843876 27.06133 354.722841 354.722841 0 0 0-184.3096 182.846825 329.124285 329.124285 0 0 0-27.06133 133.843876 334.975384 334.975384 0 0 0 38.763527 158.711044 329.855672 329.855672 0 0 0 108.245321 122.873066 63.630695 63.630695 0 0 1 28.524104 40.957689 68.750406 68.750406 0 0 1-10.970809 51.928499A68.750406 68.750406 0 0 1 236.178391 749.694747a463.699548 463.699548 0 0 1-86.303701-80.452603z m410.308275-298.406018a65.09347 65.09347 0 0 1 19.747458 47.540174V827.221801a68.019019 68.019019 0 0 1-19.747458 48.271562 62.899308 62.899308 0 0 1-47.540174 20.478844 64.362082 64.362082 0 0 1-49.002949-20.478844 68.019019 68.019019 0 0 1-19.747457-48.271562v-408.845501a65.09347 65.09347 0 0 1 19.747457-47.540174 64.362082 64.362082 0 0 1 49.002949-20.478845 62.899308 62.899308 0 0 1 47.540174 20.478845z"  horiz-adv-x="1024" />

    
    <glyph glyph-name="mianbaoxiejiantou" unicode="&#58912;" d="M292.555236-127.995612a68.739065 68.739065 0 0 0-51.188665 21.937999 70.201598 70.201598 0 0 0 0 102.377331L627.475361 383.891041 241.366571 771.462365a70.201598 70.201598 0 0 0 0 102.37733 70.201598 70.201598 0 0 0 102.377331 0l438.759988-438.759988a70.201598 70.201598 0 0 0 0-102.377331l-438.759988-438.759989A68.739065 68.739065 0 0 0 292.555236-127.995612z"  horiz-adv-x="1024" />

    
    <glyph glyph-name="qiehuan" unicode="&#58913;" d="M509.833577-128A489.013763 489.013763 0 0 0 224.920898-36.827942a677.574155 677.574155 0 0 0-73.559274 70.451135v-39.369752a54.910444 54.910444 0 0 0-52.838351-61.126721 55.94649 55.94649 0 0 0-53.874398 61.126721V221.147538a49.730213 49.730213 0 0 0 14.504645 38.333706A50.766259 50.766259 0 0 0 98.523273 273.98589a59.054628 59.054628 0 0 0 59.054628-51.802305 379.192876 379.192876 0 0 1 353.291723-234.146421 336.714985 336.714985 0 0 1 45.586028 0 381.264968 381.264968 0 0 1 332.570801 328.426616 56.982536 56.982536 0 0 0 22.793014 38.333706 56.982536 56.982536 0 0 0 38.333706 11.396508 60.090674 60.090674 0 0 0 55.94649-67.342997A506.626547 506.626547 0 0 0 836.188102-4.710513a497.302132 497.302132 0 0 0-326.354525-123.289487zM69.513982 401.419561a59.054628 59.054628 0 0 0-51.802306 67.342997 506.626547 506.626547 0 0 0 165.767377 303.56151A492.121901 492.121901 0 0 0 792.674165 806.51359a580.185821 580.185821 0 0 0 73.559274-68.379044v39.369752a53.874398 53.874398 0 1 0 103.60461 0v-228.966189a55.94649 55.94649 0 0 0-51.802305-52.838352 52.838352 52.838352 0 0 0-55.94649 43.513937 383.33706 383.33706 0 0 1-352.255677 241.398743h-43.513936A381.264968 381.264968 0 0 1 131.676748 452.185821a58.018582 58.018582 0 0 0-55.94649-50.76626H69.513982z"  horiz-adv-x="1024" />

    
    <glyph glyph-name="riqi" unicode="&#58914;" d="M819.2 793.6H896a128 128 0 0 0 128-128V0a128 128 0 0 0-128-128H128a128 128 0 0 0-128 128V665.6a128 128 0 0 0 128 128h76.8v-74.88a76.8 76.8 0 1 1 153.6 0V793.6h307.2v-74.88a76.8 76.8 0 0 1 153.6 0z m-704-238.08a64 64 0 0 1-64-64v-504.96a64 64 0 0 1 64-64h793.6a64 64 0 0 1 64 64V491.52a64 64 0 0 1-64 64zM288 896a32 32 0 0 0 32-32v-140.8a32 32 0 0 0-32-32 32 32 0 0 0-32 32V864a32 32 0 0 0 32 32zM748.8 896a32 32 0 0 0 32-32v-140.8a32 32 0 0 0-32-32 32 32 0 0 0-32 32V864a32 32 0 0 0 32 32zM153.6 384H256v-102.4H153.6z m204.8 0h102.4v-102.4H358.4z m204.8 0h102.4v-102.4H563.2zM768 384h102.4v-102.4H768z m-614.4-204.8H256v-102.4H153.6z m204.8 0h102.4v-102.4H358.4z m204.8 0h102.4v-102.4H563.2z m204.8 0h102.4v-102.4H768z"  horiz-adv-x="1024" />

    
    <glyph glyph-name="logo" unicode="&#58915;" d="M1497.85182 577.876041v34.133106H1570.555335v-34.133106h175.444164v-299.347338l-51.199659-62.804914H1570.555335v-17.066553l-73.727508-31.402458v48.810342h-170.665529V577.876041z m0-57.343618H1399.889806v-246.441024h97.962014zM1570.555335 274.091399h102.399318V520.532423h-102.399318z m570.022867 248.830342h-115.369898V580.265358h116.393891v28.330478h65.876894v-28.330478h36.863754l-18.773208-57.343617h-18.090546v-287.742082l-76.458157-59.732935h-34.133106v54.271638h46.421024zM2068.89868 486.399317h66.559556l-45.738362-253.950307h-69.972867z m-118.100546-198.313344L2010.531069 179.201365h-68.266212l-35.839761 68.266212-36.863754-70.314198h-68.266212L1877.753287 315.733788v201.385325h60.415597V315.733788l11.263925-21.162525V554.665529h-84.991433v-252.243652l-61.780922-23.551843V604.841194h206.846622v-294.227371z m511.996586 322.557849h88.746075l-58.708942-136.532423H2560.415403l144.041706-299.006006h-93.866041l-127.316484 267.94488-111.615256-270.675529h-89.770068zM2799.347143 176.470717l44.714369 335.187099h-88.404744V569.342764h94.890034l4.095973 34.133106H2935.879566l-4.095972-34.133106h247.465017v-334.845767l-65.535564-58.02628h-96.93802v58.02628h84.991433v277.160819h-177.150819l-43.349044-335.187099z m443.730375 204.798635h409.59727v-117.759215l-73.727509-26.282492v91.135393h-261.118259v-73.727509l-74.751502-27.989147z m170.665529-68.266212h74.751502v-36.522423l175.102833-102.399318H3550.27547l-97.620682 52.906314-102.399317-54.612969h-109.908601l175.444164 102.399318z m129.02314 183.294778h44.714369l74.751501-97.620683H3584.408576l-58.02628 81.236792-78.506143-80.212798h-87.380751l123.561843 123.903174h84.991434z m-250.536996-7.509283h77.823481l-66.218225-90.1114h-80.55413z m173.737508 52.564983l-10.239932-26.965154H3386.436563l31.402457 89.770068h68.266212L3482.009259 588.798635h185.342764v-70.314198l-68.266211-22.52785v46.421024z m-227.326484 58.026279h77.140819l54.271638-84.650102h-76.799488z m804.858634-43.690375l-8.874608-23.210512H4130.538269V384l-61.780922-54.612969h-21.503856v-102.399318l-51.199659-51.199658h-30.378464v49.151672h19.797201v102.399317h-74.751502v204.798635h54.954301l8.533276 23.210512h-87.380751v-361.46959l-62.122252-29.354471V604.841194h315.048566l-21.845188-48.127679zM3972.501989 486.399317v-29.01314h93.866041l-22.186519-47.103686h-71.679522v-34.133105h95.914027V486.399317z m-211.625256-6.826621a48.46901 48.46901 0 0 0 20.821195-5.461297 38.57041 38.57041 0 0 0 15.701228-15.701228 42.666382 42.666382 0 0 0 5.802628-21.845188 38.57041 38.57041 0 0 0-5.461297-21.162526 42.325051 42.325051 0 0 0-36.863754-21.845187 38.911741 38.911741 0 0 0-21.162526 5.802628 42.325051 42.325051 0 0 0-15.359897 15.701228 44.031706 44.031706 0 0 0-5.461297 21.845188 43.349044 43.349044 0 0 0 5.461297 21.162526 42.666382 42.666382 0 0 0 16.04256 16.042559 41.98372 41.98372 0 0 0 20.479863 4.437304z m0 126.975154a41.98372 41.98372 0 0 0 20.479864-5.461297 38.57041 38.57041 0 0 0 15.701228-15.701229 41.301058 41.301058 0 0 0 6.143959-21.503857 41.98372 41.98372 0 0 0-5.802628-21.162525 46.079693 46.079693 0 0 0-15.701228-15.701229 37.205085 37.205085 0 0 0-20.821195-5.461297 38.57041 38.57041 0 0 0-20.821194 5.802628 39.935734 39.935734 0 0 0-15.701229 15.359898 43.349044 43.349044 0 0 0 0 42.666382 39.594403 39.594403 0 0 0 16.04256 15.701229 43.349044 43.349044 0 0 0 20.479863 4.437304z m-34.133106-259.070273h68.266212v-148.137679l-68.266212-29.01314z m384.680102-34.133106l22.186519-136.532423h-58.367611l-22.186518 136.532423z m-134.143105 0l-27.989147-136.532423H3891.606528l28.330478 136.532423z m292.862047 121.855188v-11.946587l-77.823481-18.431877v73.727508h170.665529A38.911741 38.911741 0 0 0 4369.470009 486.399317l5.119966 7.167953h-42.666382l-30.719795 71.679522h-15.018567l-21.162526-73.386178h-71.679522l34.133106 114.345905h184.660102l-22.186518-40.959727h-20.479864l26.965154-57.684949a55.636962 55.636962 0 0 0 18.431877 0l27.989147 99.327338h179.198805l-21.503857-41.642389h-16.725222l34.133106-71.679522h-70.314198l-34.133106 71.679522h-12.629249l-19.114539-71.679522H4437.736221c3.413311-4.778635 6.48529-9.898601 9.8986-15.018567h166.569557v-46.421024l-77.823482-22.52785v25.59983z m-58.02628-30.719796h388.093413v-60.756928l-66.218225-47.786348h-244.051706v-16.383891h309.9286v-54.612969L4536.039565 179.201365h-322.89918z m310.269932-41.642389h-232.105119v-23.551843h232.105119z m-232.105119-120.831194v-21.503857h232.105119v21.503857zM4820.027005 604.841194l-20.479863-52.564983h-23.893174V418.133106h37.546416l-22.186519-52.906314h-14.677235v-136.532423H4813.200384l-22.52785-53.247645h-123.903174V230.401024h37.205086v136.532423h-37.205086V418.133106h37.205086v133.119112h-36.522423V604.841194z m-3.754641-379.901467h105.471297V267.94744h-95.572697V315.733788h95.572697v44.373038h-93.866041V602.451877H5086.26523v-187.04942l-66.559556-54.9543h-27.306484V315.733788H5086.26523l-21.845187-48.127679h-70.99686v-43.007713h107.177952l-23.551843-48.46901h-261.118259z m108.201945 232.44645h-26.282491v-49.834334h26.282491z m0 96.59669h-26.282491v-49.151673h26.282491z m68.266212-146.431024h25.258498v49.834334h-26.965154zM5017.999019 554.665529h-26.965154v-49.151672h26.965154z m364.200239-10.581263l-88.746075-54.271638h84.650102l41.642389 20.138532h125.95116l-223.913174-117.759215h159.742935l-15.018566 50.175666h78.506143l27.306485-102.399317H5495.8625l-10.239932 41.301058-16.04256-41.301058h-70.655529v-106.836622l-68.266211-54.9543h-48.46901v52.564983h39.935733v107.519283h-172.713515v39.594403l134.143106 61.098259h-134.143106v34.133106l112.297918 66.218225-112.297918-6.48529V591.529283l424.274505 19.797201-15.359898-58.026279z m121.855187-234.153106l66.559556-130.729795h-82.943447l-65.194232 129.02314z m-294.910034 0h81.919454L5230.306937 179.201365h-84.650102z m762.533583 136.532424l-21.845187 62.463583h68.266211l39.253072-113.321911h-68.266212l-11.605256 34.133106-17.066553-34.133106h-170.665528v37.546416l43.690375 100.01h-43.690375V584.702662h87.722081a122.53785 122.53785 0 0 0 5.802628 11.605256 50.516997 50.516997 0 0 0 12.970581 12.629249 36.863754 36.863754 0 0 0 23.210512 7.167952 38.229078 38.229078 0 0 0 23.551843-6.143959 34.133106 34.133106 0 0 0 12.629249-13.311911l6.143959-11.946587h99.327338l-22.869181-51.54099h-129.705802L5871.326663 446.122253z m-266.579556 30.378464l23.210512 38.570409H5803.060452l-102.399318-176.126826h87.380751l-23.210512-53.247645h-146.772355v47.786349l54.954301 91.476723h-56.660956V486.399317l64.170239 116.735222h74.751502l-68.266212-128.340478z m293.203379-97.620683v-145.748361h62.804915l-23.551843-50.516997h-109.56727v195.924027z m-209.918601-146.431024l-23.893174-51.88232h-145.065699v51.540989z m121.513857 146.089693L5861.086732 179.201365h-72.703516l48.810342 199.337338zM580.695268 247.467577v-232.787782a375.464164 375.464164 0 0 1 71.679522 716.795222l61.43959 123.561843A511.996587 511.996587 0 0 0 512.429056-127.996587a498.684675 498.684675 0 0 0-68.266212 4.437304V247.467577h-68.266211v273.064846h68.266211V753.320205a375.464164 375.464164 0 0 1-68.266211-719.184539v-143.700376A511.996587 511.996587 0 0 0 512.429056 895.996587a498.684675 498.684675 0 0 0 68.266212-4.437304V520.532423h68.266211v-273.064846z m-68.266212 17.066553a119.46587 119.46587 0 1 1-119.46587 119.46587 119.46587 119.46587 0 0 1 119.46587-119.46587z"  horiz-adv-x="6061" />

    
    <glyph glyph-name="biaotoujiantouxiangshang" unicode="&#58916;" d="M512-128a113.777778 113.777778 0 0 1 113.777778 113.777778V668.444444H398.222222v-682.666666a113.777778 113.777778 0 0 1 113.777778-113.777778zM512 622.819556l244.622222-244.622223a113.777778 113.777778 0 1 1 160.881778 160.995556L595.626667 860.956444A113.436444 113.436444 0 0 1 512 894.293333a113.436444 113.436444 0 0 1-83.626667-33.336889L106.496 539.192889A113.777778 113.777778 0 0 1 267.491556 378.311111L512 622.819556z"  horiz-adv-x="1024" />

    
    <glyph glyph-name="biaotoujiantouxiangxia" unicode="&#58917;" d="M512 896a113.777778 113.777778 0 0 0 113.777778-113.777778v-682.666666H398.222222V782.222222a113.777778 113.777778 0 0 0 113.777778 113.777778zM512 145.180444l244.622222 244.622223a113.777778 113.777778 0 1 0 160.881778-160.995556L595.626667-92.956444A113.436444 113.436444 0 0 0 512-126.293333a113.436444 113.436444 0 0 0-83.626667 33.336889L106.496 228.807111A113.777778 113.777778 0 0 0 267.491556 389.688889L512 145.180444z"  horiz-adv-x="1024" />

    
    <glyph glyph-name="duihuakuangguanbiiconmorenzhuangtai" unicode="&#58918;" d="M512 456.362667l289.655467 289.655466a51.2 51.2 0 1 0 72.362666-72.362666L584.430933 384l289.5872-289.655467a51.2 51.2 0 1 0-72.362666-72.362666L512 311.569067l-289.655467-289.5872a51.2 51.2 0 1 0-72.362666 72.362666L439.569067 384 149.981867 673.655467a51.2 51.2 0 1 0 72.362666 72.362666L512 456.430933z"  horiz-adv-x="1024" />

    
    <glyph glyph-name="duihuakuangguanbiiconxuanfudianjizhuangtai" unicode="&#58919;" d="M512 456.362667l289.655467 289.655466a51.2 51.2 0 1 0 72.362666-72.362666L584.430933 384l289.5872-289.655467a51.2 51.2 0 1 0-72.362666-72.362666L512 311.569067l-289.655467-289.5872a51.2 51.2 0 1 0-72.362666 72.362666L439.569067 384 149.981867 673.655467a51.2 51.2 0 1 0 72.362666 72.362666L512 456.430933z"  horiz-adv-x="1024" />

    
    <glyph glyph-name="zuocecaidanjiantouxiangxia" unicode="&#58927;" d="M896.042054-127.992323a120.273394 120.273394 0 0 0-89.565293 38.385126l-767.702515 767.702515a122.832402 122.832402 0 0 0 0 179.130587 122.832402 122.832402 0 0 0 179.130587 0L896.042054 181.647692 1574.179276 857.225905a122.832402 122.832402 0 0 0 179.130587 0 122.832402 122.832402 0 0 0 0-179.130587l-767.702515-767.702515A120.273394 120.273394 0 0 0 896.042054-127.992323z"  horiz-adv-x="1792" />

    
    <glyph glyph-name="zuocecaidanjiantouxiangshang1" unicode="&#58928;" d="M1663.12544-127.611176a120.228626 120.228626 0 0 0-89.531955 38.370839L895.708677 586.086414 217.82387-89.240337a122.786682 122.786682 0 0 0-179.063912 0 122.786682 122.786682 0 0 0 0 179.063911l767.416763 767.416763a122.786682 122.786682 0 0 0 179.063912 0l767.416763-767.416763a122.786682 122.786682 0 0 0 0-179.063911 120.228626 120.228626 0 0 0-89.531956-38.370839z"  horiz-adv-x="1792" />

    
    <glyph glyph-name="fuliguanlidianji" unicode="&#58929;" d="M831.120138-5.944533h-82.435368a16.61488 16.61488 0 0 0-15.975846 15.975847 15.975847 15.975847 0 0 0 15.975846 15.975846h63.903386v157.841364a15.975847 15.975847 0 0 0 31.951693 0v-173.81721a15.975847 15.975847 0 0 0-13.419711-15.975847zM958.92691 256.05935H64.279505V606.88894A95.855079 95.855079 0 0 0 160.134584 703.383053h702.937247A95.855079 95.855079 0 0 0 958.92691 606.88894zM160.134584 351.275396h702.937247v255.613544h-702.937247zM863.071831-127.360966h-702.937247A95.855079 95.855079 0 0 0 64.279505-32.144921V511.672895h894.647405v-543.178782a95.855079 95.855079 0 0 0-95.855079-95.855079z m-702.937247 543.178781v-447.323702h702.937247v447.323702zM549.945239 638.840633h63.903386v-702.937247h-63.903386zM422.138467 638.840633h63.903386v-702.937247h-63.903386zM376.767063 639.479667a235.803495 235.803495 0 0 0-60.708217 42.815268A215.993445 215.993445 0 0 0 255.989664 767.286439a54.956912 54.956912 0 0 0 4.473237 51.761743 38.342032 38.342032 0 0 0 30.034591 12.141643 120.7774 120.7774 0 0 0 24.283287-3.195169 218.54958 218.54958 0 0 0 90.103774-54.317879c52.400777-50.483675 70.932759-109.913824 55.595946-134.836144h118.860298c-14.697779 24.922321 3.834203 84.35247 56.23498 134.836144a214.715377 214.715377 0 0 0 90.103774 54.317879 55.595946 55.595946 0 0 0 51.761743-5.751305c20.449084-21.727151 0-86.269571-53.039811-140.58745a255.613544 255.613544 0 0 0-63.903386-42.815268h108.635757c78.601165 77.323097 101.606384 176.373346 52.400776 227.496054a113.748027 113.748027 0 0 1-111.191892 23.644253 273.506492 273.506492 0 0 1-119.499331-70.293725 272.228425 272.228425 0 0 1-70.932759-109.27479A272.228425 272.228425 0 0 1 447.699822 819.687215 268.394221 268.394221 0 0 1 330.117591 889.98094a113.748027 113.748027 0 0 1-113.108993-23.644253 112.469959 112.469959 0 0 1-19.81005-113.748027A274.78456 274.78456 0 0 1 268.770341 639.479667z"  horiz-adv-x="1024" />

    
    <glyph glyph-name="fuliguanliweidianji" unicode="&#58930;" d="M831.120138-5.944533h-82.435368a16.61488 16.61488 0 0 0-15.975846 15.975847 15.975847 15.975847 0 0 0 15.975846 15.975846h63.903386v157.841364a15.975847 15.975847 0 0 0 31.951693 0v-173.81721a15.975847 15.975847 0 0 0-13.419711-15.975847zM958.92691 256.05935H64.279505V606.88894A95.855079 95.855079 0 0 0 160.134584 703.383053h702.937247A95.855079 95.855079 0 0 0 958.92691 606.88894zM160.134584 351.275396h702.937247v255.613544h-702.937247zM863.071831-127.360966h-702.937247A95.855079 95.855079 0 0 0 64.279505-32.144921V511.672895h894.647405v-543.178782a95.855079 95.855079 0 0 0-95.855079-95.855079z m-702.937247 543.178781v-447.323702h702.937247v447.323702zM549.945239 638.840633h63.903386v-702.937247h-63.903386zM422.138467 638.840633h63.903386v-702.937247h-63.903386zM376.767063 639.479667a235.803495 235.803495 0 0 0-60.708217 42.815268A215.993445 215.993445 0 0 0 255.989664 767.286439a54.956912 54.956912 0 0 0 4.473237 51.761743 38.342032 38.342032 0 0 0 30.034591 12.141643 120.7774 120.7774 0 0 0 24.283287-3.195169 218.54958 218.54958 0 0 0 90.103774-54.317879c52.400777-50.483675 70.932759-109.913824 55.595946-134.836144h118.860298c-14.697779 24.922321 3.834203 84.35247 56.23498 134.836144a214.715377 214.715377 0 0 0 90.103774 54.317879 55.595946 55.595946 0 0 0 51.761743-5.751305c20.449084-21.727151 0-86.269571-53.039811-140.58745a255.613544 255.613544 0 0 0-63.903386-42.815268h108.635757c78.601165 77.323097 101.606384 176.373346 52.400776 227.496054a113.748027 113.748027 0 0 1-111.191892 23.644253 273.506492 273.506492 0 0 1-119.499331-70.293725 272.228425 272.228425 0 0 1-70.932759-109.27479A272.228425 272.228425 0 0 1 447.699822 819.687215 268.394221 268.394221 0 0 1 330.117591 889.98094a113.748027 113.748027 0 0 1-113.108993-23.644253 112.469959 112.469959 0 0 1-19.81005-113.748027A274.78456 274.78456 0 0 1 268.770341 639.479667z"  horiz-adv-x="1024" />

    
    <glyph glyph-name="kongbaiyeicon" unicode="&#58932;" d="M805.668571-30.47619H218.331429a60.952381 60.952381 0 0 0-60.952381 60.95238V728.137143a60.952381 60.952381 0 0 0 60.952381 60.952381h587.337142a60.952381 60.952381 0 0 0 60.952381-60.952381V30.47619a60.952381 60.952381 0 0 0-60.952381-60.95238zM218.331429 764.708571a36.571429 36.571429 0 0 1-36.571429-36.571428V30.47619a36.571429 36.571429 0 0 1 36.571429-36.571428h587.337142a36.571429 36.571429 0 0 1 36.571429 36.571428V728.137143a36.571429 36.571429 0 0 1-36.571429 36.571428zM268.190476 726.79619h487.619048a48.761905 48.761905 0 0 0 48.761905-48.761904v-597.333334a48.761905 48.761905 0 0 0-48.761905-48.761904H268.190476a48.761905 48.761905 0 0 0-48.761905 48.761904v597.333334a48.761905 48.761905 0 0 0 48.761905 48.761904zM755.809524 32.304762H268.190476a48.761905 48.761905 0 0 0-48.761905 48.761905v597.333333a48.761905 48.761905 0 0 0 48.761905 48.761905h487.619048a48.761905 48.761905 0 0 0 48.761905-48.761905v-597.333333a48.761905 48.761905 0 0 0-48.761905-48.761905z m-487.619048 670.47619a24.380952 24.380952 0 0 1-24.380952-24.380952v-597.333333a24.380952 24.380952 0 0 1 24.380952-24.380953h487.619048a24.380952 24.380952 0 0 1 24.380952 24.380953v597.333333a24.380952 24.380952 0 0 1-24.380952 24.380952zM458.849524 842.605714a53.150476 53.150476 0 1 0 106.300952 0H658.285714a48.761905 48.761905 0 1 0 0-97.523809H365.714286a48.761905 48.761905 0 1 0 0 97.523809zM658.285714 744.594286H365.714286a48.761905 48.761905 0 1 0 0 97.523809h92.891428a53.150476 53.150476 0 1 0 106.300953 0H658.285714a48.761905 48.761905 0 1 0 0-97.523809z m-292.571428 73.142857a24.380952 24.380952 0 1 1 0-48.761905h292.571428a24.380952 24.380952 0 1 1 0 48.761905h-117.51619v24.380952a28.769524 28.769524 0 1 1-57.539048 0v-24.380952zM494.32381 842.605714a17.798095 17.67619 90 1 1 35.35238 0 17.798095 17.67619 90 1 1-35.35238 0ZM325.851429 602.209524l195.047619 0 0-26.697143-195.047619 0 0 26.697143ZM339.139048 504.198095h345.721904a13.287619 13.287619 0 0 0 13.287619-13.287619 13.287619 13.287619 0 0 0-13.287619-13.409524H339.139048a13.287619 13.287619 0 0 0-13.287619 13.409524 13.287619 13.287619 0 0 0 13.287619 13.287619zM339.139048 406.308571h345.721904a13.287619 13.287619 0 0 0 13.287619-13.409523 13.409524 13.409524 0 0 0-13.287619-13.409524H339.139048a13.409524 13.409524 0 0 0-13.287619 13.409524 13.287619 13.287619 0 0 0 13.287619 13.409523zM339.139048 308.297143h345.721904a13.287619 13.287619 0 0 0 13.287619-13.287619 13.287619 13.287619 0 0 0-13.287619-13.409524H339.139048a13.287619 13.287619 0 0 0-13.287619 13.409524 13.287619 13.287619 0 0 0 13.287619 13.287619zM339.139048 210.407619h168.350476a13.409524 13.409524 0 0 0 13.409524-13.409524 13.287619 13.287619 0 0 0-13.409524-13.287619H339.139048a13.287619 13.287619 0 0 0-13.287619 13.287619 13.287619 13.287619 0 0 0 13.287619 13.409524zM875.52 410.697143c35.84 15.969524 35.84 30.841905 53.150476 66.803809 20.48-36.571429 20.48-50.834286 53.272381-66.803809-37.546667-13.653333-37.668571-28.647619-53.272381-66.80381-16.579048 38.521905-16.700952 53.150476-53.150476 66.80381zM42.057143 691.2c26.940952 12.8 26.940952 24.380952 39.984762 53.394286C97.52381 715.824762 97.52381 704 121.904762 691.2c-28.16-10.971429-28.16-22.918095-39.862857-53.394286C69.485714 668.647619 69.485714 680.228571 42.057143 691.2zM866.620952 97.158095V30.47619a60.952381 60.952381 0 0 0-60.952381-60.95238H218.331429a60.952381 60.952381 0 0 0-60.952381 60.95238v66.681905C74.971429 73.264762 24.380952 41.081905 24.380952 6.095238c0-73.142857 218.331429-134.095238 487.619048-134.095238s487.619048 59.855238 487.619048 134.095238c0 34.986667-50.590476 67.169524-132.998096 91.062857z"  horiz-adv-x="1024" />

    
    <glyph glyph-name="tuichu" unicode="&#58952;" d="M64.365714 384a447.634286 447.634286 0 0 0 287.451429 417.645714v-73.142857a383.268571 383.268571 0 1 1 320.365714 0v73.142857A447.634286 447.634286 0 1 0 64.365714 384z m479.817143 415.451429v-384.731429A32.182857 32.182857 0 0 0 512 384a32.182857 32.182857 0 0 0-32.182857 32.182857V799.451429A32.182857 32.182857 0 0 0 512 831.634286a32.182857 32.182857 0 0 0 32.182857-32.182857z"  horiz-adv-x="1024" />

    
    <glyph glyph-name="qiehuan1" unicode="&#58953;" d="M608.036571 800.036571v-832l0.146286-0.950857a30.72 30.72 0 0 1 31.012572-30.939428l0.804571-0.146286a31.451429 31.451429 0 0 1 26.331429 14.921143l188.489142 188.489143a30.72 30.72 0 0 1-43.446857 43.446857l-139.337143-139.410286V800.036571a31.963429 31.963429 0 1 1-64 0zM415.963429-32.036571V799.963429L415.890286 800.914286A30.500571 30.500571 0 0 1 384.731429 831.853714L384 832a31.451429 31.451429 0 0 1-26.331429-14.921143L169.179429 628.589714a30.72 30.72 0 1 1 43.446857-43.446857l139.337143 139.410286v-756.516572a31.963429 31.963429 0 1 1 64 0z"  horiz-adv-x="1024" />

    


  </font>
</defs>
</svg>
